<?xml version="1.0" standalone="no"?>
<!DOCTYPE svg PUBLIC "-//W3C//DTD SVG 20010904//EN"
 "http://www.w3.org/TR/2001/REC-SVG-20010904/DTD/svg10.dtd">
<svg version="1.0" xmlns="http://www.w3.org/2000/svg"
 width="635.000000pt" height="635.000000pt" viewBox="0 0 635.000000 635.000000"
 preserveAspectRatio="xMidYMid meet">
<metadata>
Created by potrace 1.14, written by Peter Selinger 2001-2017
</metadata>
<g transform="translate(0.000000,635.000000) scale(0.100000,-0.100000)"
fill="#000000" stroke="none">
<path d="M0 3175 l0 -3175 3175 0 3175 0 0 3175 0 3175 -3175 0 -3175 0 0
-3175z m3328 2385 c438 -55 818 -376 918 -775 l16 -63 89 -4 c84 -3 90 -5 120
-34 41 -41 48 -82 49 -256 l0 -148 93 0 c59 -1 110 -7 142 -18 l50 -17 -2 -47
c-2 -74 -61 -186 -144 -272 l-69 -73 70 -52 c109 -82 215 -245 192 -296 -21
-46 -212 -94 -321 -80 -139 17 -300 97 -375 185 -15 18 -28 31 -30 29 -2 -2
-25 -46 -50 -98 -63 -127 -136 -229 -228 -322 l-78 -78 58 -16 c101 -28 244
-86 365 -147 637 -323 1048 -925 1084 -1589 4 -89 3 -122 -7 -134 -11 -13
-234 -15 -2089 -15 -1602 0 -2080 3 -2089 12 -17 17 -15 149 4 277 60 413 238
763 539 1064 228 228 517 406 825 508 l127 42 -72 71 c-85 85 -162 192 -217
300 -23 45 -60 99 -85 123 -61 60 -97 141 -97 218 0 76 27 138 90 205 l47 50
-154 0 c-135 0 -158 2 -186 20 -62 37 -68 57 -72 238 -4 220 2 265 44 310 32
35 35 37 120 42 l88 5 22 77 c118 408 488 708 940 761 66 8 195 6 273 -3z
m-927 -4467 c15 -15 15 -61 0 -76 -9 -9 -176 -13 -643 -15 -555 -2 -634 -1
-654 13 -31 20 -31 59 -1 80 20 14 92 15 654 13 468 -2 635 -6 644 -15z m2857
1 c12 -8 22 -26 22 -39 0 -56 10 -55 -662 -55 -353 0 -627 4 -641 9 -41 16
-42 76 -1 92 10 4 298 8 639 8 546 1 623 -1 643 -15z m-687 -234 c26 -14 26
-66 0 -80 -27 -14 -2755 -14 -2782 0 -25 14 -26 65 -1 79 24 14 2756 15 2783
1z"/>
<path d="M3032 5460 c-285 -40 -548 -202 -701 -431 -55 -81 -114 -211 -128
-280 l-5 -29 981 0 c539 0 981 2 981 4 0 25 -51 159 -86 226 -130 248 -383
435 -669 495 -94 20 -283 27 -373 15z"/>
<path d="M1950 4601 c-6 -11 -10 -90 -10 -186 0 -96 4 -175 10 -186 10 -19 35
-19 1230 -19 1195 0 1220 0 1230 19 13 26 13 346 0 372 -9 15 -22 19 -70 19
l-60 0 0 -154 c0 -136 -2 -156 -19 -177 -16 -20 -23 -22 -47 -14 l-29 10 -3
168 -2 167 -125 0 -125 0 0 -154 c0 -136 -2 -156 -19 -177 -16 -20 -23 -22
-47 -14 l-29 10 -3 168 -2 167 -125 0 -125 0 0 -158 c0 -141 -2 -161 -18 -175
-23 -21 -46 -22 -66 -1 -13 13 -16 43 -16 175 l0 159 -125 0 -125 0 0 -159 c0
-132 -3 -162 -16 -175 -21 -21 -47 -20 -67 2 -14 16 -17 43 -17 175 l0 157
-125 0 -125 0 0 -159 c0 -132 -3 -162 -16 -175 -21 -21 -47 -20 -67 2 -14 16
-17 43 -17 175 l0 157 -125 0 -125 0 -2 -167 -3 -168 -29 -10 c-24 -8 -31 -6
-47 14 -17 21 -19 41 -19 177 l0 154 -120 0 -120 0 0 -147 c0 -164 -9 -196
-52 -201 -49 -6 -58 24 -58 195 l0 153 -60 0 c-48 0 -61 -4 -70 -19z"/>
<path d="M4483 4156 c-42 -34 -68 -46 -105 -46 -43 0 -107 -50 -171 -135 -27
-37 -56 -65 -66 -65 -10 0 -43 28 -73 63 -40 46 -75 73 -124 98 l-69 34 -710
0 -710 0 -59 -29 c-68 -33 -126 -82 -157 -133 -32 -51 -30 -130 4 -182 55 -83
157 -144 294 -175 116 -26 256 -21 514 20 103 17 110 17 270 -5 90 -13 211
-26 269 -28 198 -10 366 44 468 151 30 31 62 56 73 56 11 0 38 -25 68 -63 125
-159 334 -232 508 -176 l33 10 -17 32 c-32 64 -123 146 -207 188 -121 60 -126
80 -31 139 79 51 155 133 189 204 14 30 26 57 26 60 0 3 -42 6 -94 6 -84 0
-97 -2 -123 -24z m-1567 -162 c32 -16 72 -46 89 -67 26 -33 30 -47 30 -97 0
-50 -4 -64 -30 -97 -131 -165 -487 -119 -512 67 -9 62 4 104 44 145 60 62 131
85 245 81 61 -2 88 -9 134 -32z m831 6 c137 -59 174 -192 80 -286 -55 -54
-136 -84 -225 -84 -308 2 -378 315 -87 391 55 15 176 4 232 -21z"/>
<path d="M2677 3916 c-87 -32 -112 -93 -57 -139 43 -37 94 -50 164 -45 145 12
202 101 106 164 -49 33 -153 42 -213 20z"/>
<path d="M3517 3916 c-160 -59 -77 -198 109 -183 71 5 121 30 144 70 13 24 13
30 0 54 -8 15 -30 36 -48 46 -44 26 -153 33 -205 13z"/>
<path d="M4105 4080 c30 -31 44 -29 66 12 9 16 5 18 -43 18 l-52 0 29 -30z"/>
<path d="M3905 3514 c-133 -50 -270 -54 -550 -18 -195 25 -202 25 -300 10
-294 -47 -490 -46 -617 3 -16 6 -28 8 -28 5 0 -3 24 -40 53 -82 122 -177 300
-311 492 -372 96 -29 282 -38 382 -17 232 50 451 213 597 445 29 46 28 47 -29
26z"/>
<path d="M2581 3034 c-129 -38 -267 -92 -366 -143 l-90 -46 533 -3 c294 -1
771 -1 1060 0 l527 3 -90 44 c-134 65 -278 120 -391 149 l-102 26 -88 -41
c-138 -65 -213 -84 -345 -90 -169 -8 -337 27 -468 98 -65 35 -73 35 -180 3z"/>
<path d="M1889 2691 c-36 -28 -105 -88 -155 -135 l-89 -85 1535 0 1535 0 -90
86 c-49 47 -119 107 -154 134 l-64 49 -1226 0 -1226 0 -66 -49z"/>
<path d="M1521 2318 c-50 -67 -144 -219 -138 -224 2 -2 812 -3 1800 -2 l1797
3 -49 82 c-28 45 -68 107 -91 138 l-41 55 -1619 0 -1619 0 -40 -52z"/>
<path d="M1315 1960 c-8 -16 -31 -76 -50 -132 l-34 -103 1941 -3 c1068 -1
1944 0 1947 3 6 6 -41 155 -70 220 l-20 45 -1849 0 -1849 0 -16 -30z"/>
<path d="M1206 1593 c-8 -26 -26 -181 -26 -220 l0 -33 2000 0 2000 0 0 23 c0
27 -18 181 -26 220 l-6 27 -1968 0 c-1866 0 -1969 -1 -1974 -17z"/>
</g>
</svg>
