<?xml version="1.0" standalone="no"?>
<!DOCTYPE svg PUBLIC "-//W3C//DTD SVG 20010904//EN"
 "http://www.w3.org/TR/2001/REC-SVG-20010904/DTD/svg10.dtd">
<svg version="1.0" xmlns="http://www.w3.org/2000/svg"
 width="500.000000pt" height="500.000000pt" viewBox="0 0 500.000000 500.000000"
 preserveAspectRatio="xMidYMid meet">
<metadata>
Created by potrace 1.14, written by Peter Selinger 2001-2017
</metadata>
<g transform="translate(0.000000,500.000000) scale(0.100000,-0.100000)"
fill="#000000" stroke="none">
<path d="M0 2500 l0 -2500 2500 0 2500 0 0 2500 0 2500 -2500 0 -2500 0 0
-2500z m2710 1850 c47 -11 130 -43 185 -69 209 -103 353 -265 425 -480 l29
-86 71 -5 c65 -5 74 -8 96 -35 23 -28 24 -37 24 -167 l0 -138 63 0 c77 -1 148
-16 164 -36 25 -34 -33 -161 -114 -245 l-54 -57 34 -21 c84 -52 185 -197 173
-247 -10 -38 -122 -68 -235 -62 -74 3 -98 9 -163 40 -41 20 -96 56 -122 81
l-47 45 -36 -72 c-49 -97 -102 -174 -175 -251 -33 -36 -59 -67 -57 -68 2 -1
44 -15 92 -31 243 -80 453 -211 643 -401 217 -217 340 -436 405 -724 26 -113
37 -295 19 -316 -11 -13 -190 -15 -1630 -15 -1440 0 -1619 2 -1630 15 -10 12
-11 43 -7 123 24 410 247 804 607 1074 119 89 327 198 465 243 50 16 92 31 94
33 3 1 -18 26 -45 55 -78 80 -118 135 -165 222 -24 44 -59 95 -77 114 -94 94
-96 230 -4 324 l36 37 -99 0 c-119 0 -167 12 -195 47 -18 24 -20 40 -20 199 0
168 1 174 24 201 21 25 33 29 97 33 l72 5 17 60 c47 172 167 338 323 444 73
50 205 109 293 130 112 28 309 28 424 1z m-815 -3505 l0 -30 -515 0 c-489 0
-515 1 -518 18 -10 49 -28 47 520 45 l513 -3 0 -30z m2240 0 l0 -30 -515 0
c-489 0 -515 1 -518 18 -10 49 -28 47 520 45 l513 -3 0 -30z m-537 -174 c8
-53 49 -51 -1096 -51 -714 0 -1070 3 -1083 10 -18 10 -26 50 -12 63 3 4 497 6
1097 5 l1091 -3 3 -24z"/>
<path d="M2363 4285 c-186 -34 -335 -113 -456 -244 -83 -90 -167 -247 -167
-311 0 -20 12 -20 761 -20 l762 0 -6 28 c-12 60 -51 147 -98 216 -117 176
-302 292 -526 331 -102 18 -172 18 -270 0z"/>
<path d="M1536 3614 c-10 -27 -7 -264 4 -285 10 -19 32 -19 960 -19 928 0 950
0 960 19 11 21 14 258 4 285 -4 12 -20 16 -55 16 l-49 0 0 -119 c0 -95 -3
-123 -16 -135 -8 -9 -21 -16 -28 -16 -30 0 -36 25 -36 147 l0 123 -100 0 -100
0 0 -124 c0 -101 -3 -126 -16 -137 -11 -9 -20 -10 -32 -2 -14 8 -17 31 -20
137 l-3 126 -99 0 -100 0 0 -123 c0 -122 -6 -147 -36 -147 -7 0 -20 7 -28 16
-13 12 -16 40 -16 135 l0 119 -95 0 -95 0 0 -125 c0 -114 -2 -125 -20 -135
-14 -8 -26 -8 -40 0 -18 10 -20 21 -20 135 l0 125 -95 0 -95 0 0 -119 c0 -95
-3 -123 -16 -135 -8 -9 -21 -16 -28 -16 -30 0 -36 25 -36 147 l0 123 -100 0
-99 0 -3 -126 c-3 -106 -6 -129 -20 -137 -12 -8 -21 -7 -32 2 -13 11 -16 36
-16 137 l0 124 -100 0 -100 0 0 -123 c0 -122 -6 -147 -36 -147 -7 0 -20 7 -28
16 -13 12 -16 40 -16 135 l0 119 -49 0 c-35 0 -51 -4 -55 -16z"/>
<path d="M3511 3266 c-18 -14 -51 -28 -73 -31 -45 -8 -95 -48 -139 -112 -17
-23 -38 -43 -47 -43 -10 0 -35 20 -56 45 -22 27 -61 58 -96 75 l-59 30 -553 0
c-616 0 -589 2 -672 -70 -53 -47 -69 -83 -64 -142 9 -86 93 -152 239 -189 95
-24 176 -23 379 7 111 16 118 16 298 -7 158 -20 195 -21 261 -12 117 17 185
47 249 109 31 30 60 54 65 54 5 0 21 -15 35 -32 98 -119 172 -160 302 -166 48
-2 97 1 113 7 l28 11 -18 30 c-29 50 -94 107 -163 142 -81 42 -89 65 -33 98
78 47 173 157 173 202 0 16 -9 18 -68 18 -56 0 -74 -4 -101 -24z m-1248 -107
c21 -6 56 -26 77 -46 114 -102 16 -253 -165 -253 -117 0 -215 69 -215 151 0
22 7 53 16 68 18 31 69 68 110 81 41 12 132 12 177 -1z m687 -16 c69 -35 95
-71 95 -128 0 -57 -26 -92 -96 -128 -48 -26 -62 -28 -130 -25 -100 6 -162 39
-190 104 -13 28 -17 53 -13 71 28 117 204 172 334 106z"/>
<path d="M2079 3067 c-48 -32 -47 -72 1 -105 30 -20 44 -23 102 -20 81 4 123
29 123 74 0 44 -52 74 -130 74 -48 0 -70 -5 -96 -23z"/>
<path d="M2742 3073 c-95 -46 -38 -133 87 -133 96 0 156 44 132 97 -23 49
-149 71 -219 36z"/>
<path d="M3225 3210 c17 -19 19 -19 37 -4 24 23 24 24 -19 24 -36 0 -36 0 -18
-20z"/>
<path d="M2447 2770 c-15 -5 -93 -16 -173 -25 -151 -17 -239 -14 -324 11 -24
7 -45 12 -47 10 -2 -1 11 -25 29 -52 44 -68 173 -192 240 -232 308 -182 684
-80 901 243 15 22 27 43 27 47 0 4 -18 1 -40 -7 -99 -35 -194 -39 -383 -15
-99 12 -184 23 -190 25 -7 2 -24 0 -40 -5z"/>
<path d="M2034 2395 c-115 -34 -198 -67 -284 -111 l-75 -39 413 -3 c226 -1
598 -1 825 0 l412 3 -75 39 c-88 45 -171 78 -287 111 l-84 25 -57 -29 c-110
-56 -196 -76 -317 -76 -130 1 -191 14 -304 66 -46 22 -84 39 -85 38 0 0 -37
-11 -82 -24z"/>
<path d="M1439 2081 c-52 -43 -105 -90 -118 -105 l-24 -26 1203 0 1203 0 -24
26 c-13 15 -66 62 -118 105 l-94 79 -967 0 -967 0 -94 -79z"/>
<path d="M1187 1808 c-49 -71 -87 -132 -87 -142 0 -3 630 -6 1400 -6 780 0
1400 4 1400 9 0 4 -28 51 -63 102 l-62 94 -1272 3 -1272 2 -44 -62z"/>
<path d="M1021 1495 c-17 -47 -33 -96 -37 -110 l-6 -25 1522 0 1522 0 -6 25
c-4 14 -20 63 -37 110 l-31 85 -1448 0 -1448 0 -31 -85z"/>
<path d="M956 1258 c-3 -13 -9 -60 -12 -105 l-7 -83 1563 0 1563 0 -7 83 c-3
45 -9 92 -12 105 l-6 22 -1538 0 -1538 0 -6 -22z"/>
</g>
</svg>
